<svg xmlns="http://www.w3.org/2000/svg" viewBox="0 0 100 100">
  <rect width="100" height="100" rx="22" fill="#146bfa"/>
  <g transform="translate(14 27.5) scale(0.12)">
    <path fill="#ffffff" d="M230.316 175.813C230.316 135.975 259.788 107.198 302.369 107.198C316.213 107.198 329.008 110.168 339.182 116.517V147.343C329.638 140.788 318.625 137.204 306.04 137.204C279.925 137.204 263.983 151.849 263.983 175.813C263.983 199.777 279.61 214.114 306.04 214.114C318.311 214.114 329.638 210.837 339.182 204.283V234.801C329.113 241.048 316.213 244.12 302.369 244.12C259.683 244.12 230.316 215.65 230.316 175.813ZM360.053 202.439V82.0052L392.566 65.5172V110.782H430.952V137.716H392.566V195.783C392.566 208.379 398.439 214.319 410.71 214.319C417.737 214.319 423.925 212.271 430.952 208.072V237.463C423.295 241.97 414.381 244.018 403.368 244.018C374.526 244.018 360.158 229.885 360.158 202.337L360.053 202.439ZM451.089 199.367L506.465 156.56L451.089 113.752V82.9269L532.58 144.885V168.234L451.089 230.295V199.469V199.367ZM210.075 113.752L154.698 156.56L210.075 199.367V230.192L128.583 168.234V144.885L210.075 82.8245V113.65V113.752ZM60.306 7.96278L7.13184 59.475C2.51712 63.981 0 70.0232 0 76.2702V351.139C0 364.247 10.9075 374.898 24.3321 374.898H522.092C528.595 374.898 534.783 372.44 539.293 367.934L592.047 316.422C596.662 311.916 599.179 305.873 599.179 299.626V24.758C599.179 11.6495 588.272 0.998901 574.847 0.998901H77.4014C71.0037 0.998901 64.8158 3.45674 60.2011 7.86037L60.306 7.96278ZM553.137 281.295H109.075C101.524 281.295 95.3359 275.355 95.3359 267.879V45.3424C95.3359 37.9689 101.419 31.9267 109.075 31.9267H553.242C560.793 31.9267 566.981 37.8665 566.981 45.3424V267.982C566.981 275.355 560.898 281.397 553.242 281.397L553.137 281.295Z"/>
  </g>
</svg>
